<?xml version="1.0" standalone="no"?>
<!DOCTYPE svg PUBLIC "-//W3C//DTD SVG 20010904//EN"
 "http://www.w3.org/TR/2001/REC-SVG-20010904/DTD/svg10.dtd">
<svg version="1.0" xmlns="http://www.w3.org/2000/svg"
 width="50.000000pt" height="50.000000pt" viewBox="0 0 50.000000 50.000000"
 preserveAspectRatio="xMidYMid meet">
<metadata>
Created by potrace 1.16, written by Peter Selinger 2001-2019
</metadata>
<g transform="translate(0.000000,50.000000) scale(0.100000,-0.100000)"
fill="#000000" stroke="none">
<path d="M162 482 c-46 -7 -77 -95 -51 -143 9 -18 7 -19 -15 -13 -57 14 -96
-29 -96 -106 0 -46 34 -90 70 -90 17 0 19 -3 10 -19 -15 -30 -12 -59 9 -80 17
-17 33 -19 161 -17 136 1 143 2 161 25 21 26 24 44 9 71 -8 15 -6 20 10 25 10
3 31 20 45 36 32 38 36 116 7 142 -21 20 -63 22 -80 5 -8 -8 -8 -2 0 24 13 45
4 100 -22 123 -29 26 -80 22 -107 -9 l-21 -25 -15 23 c-17 25 -39 34 -75 28z
m44 -20 c50 -33 40 -155 -13 -168 -36 -9 -64 23 -70 80 -5 39 -2 51 17 71 24
25 46 31 66 17z m164 -12 c40 -40 16 -153 -35 -166 -32 -8 -52 9 -66 56 -14
45 -6 83 21 110 25 25 55 25 80 0z m-257 -158 c22 -19 23 -89 1 -120 -15 -22
-49 -29 -70 -14 -42 28 -40 108 3 141 26 21 34 20 66 -7z m372 -12 c9 -28 -3
-74 -26 -105 -22 -27 -66 -34 -87 -13 -30 30 5 130 52 148 26 10 53 -3 61 -30z
m-176 -98 c25 -27 58 -56 74 -66 17 -10 27 -25 27 -40 0 -39 -23 -49 -98 -43
-37 3 -93 1 -124 -5 -51 -11 -59 -10 -78 7 -11 10 -20 29 -20 41 0 32 120 154
151 154 13 0 40 -19 68 -48z"/>
</g>
</svg>
